<?xml version="1.0" encoding="UTF-8"?>
<svg id="a" data-name="Layer 1" xmlns="http://www.w3.org/2000/svg" xmlns:xlink="http://www.w3.org/1999/xlink" viewBox="0 0 841.89 186.18">
  <defs>
    <linearGradient id="b" x1="9.04" y1="93.09" x2="193.17" y2="93.09" gradientUnits="userSpaceOnUse">
      <stop offset="0" stop-color="#fa7532"/>
      <stop offset="1" stop-color="#ffc122"/>
    </linearGradient>
    <linearGradient id="c" x1="91.61" y1="123.67" x2="91.61" y2="55.07" gradientUnits="userSpaceOnUse">
      <stop offset="0" stop-color="#fe5200"/>
      <stop offset="1" stop-color="#ffc122"/>
    </linearGradient>
    <linearGradient id="d" x1="9.04" y1="30.04" x2="99.71" y2="30.04" gradientUnits="userSpaceOnUse">
      <stop offset="0" stop-color="#ffc122"/>
      <stop offset="1" stop-color="#fe5200"/>
    </linearGradient>
  </defs>
  <g>
    <g>
      <g>
        <path d="M232.36,130.19v-46.91h-18.3v-19.27h7.79c7.79,0,10.51-4.67,10.51-17.91v-7.79h22.58v25.69h24.72v19.27h-24.72v45.54c0,8.76,4.87,13.82,13.23,13.82,4.48,0,8.95-.97,12.65-2.14l3.11,17.71c-5.64,1.95-12.07,3.11-18.68,3.11-19.85,0-32.89-12.26-32.89-31.14Z" fill="#fff"/>
        <path d="M296.21,64.01h22.58v11.29c6.03-8.76,15.18-13.62,27.06-13.62,2.92,0,6.03.39,8.95.97v20.05c-2.92-.59-5.84-.97-8.76-.97-16.74,0-27.25,10.51-27.25,26.28v52.16h-22.58v-96.15Z" fill="#fff"/>
        <path d="M357.13,112.09c0-29.58,21.8-50.41,50.02-50.41s47.68,18.88,47.68,47.69c0,3.5-.39,7.2-.58,8.95h-74.35c1.56,14.99,13.04,25.11,28.22,25.11,12.46,0,21.41-7.01,24.52-14.99l20.24,5.45c-5.06,16.15-22.19,28.61-44.77,28.61-28.81,0-50.99-20.82-50.99-50.41ZM433.04,101.77c-1.56-13.04-12.46-20.83-25.69-20.83s-23.55,7.59-26.67,20.83h52.36Z" fill="#fff"/>
        <path d="M468.28,64.01h22.58v9.34c6.03-7.59,15.57-11.68,27.64-11.68,21.41,0,36.4,14.99,36.4,36.59v61.89h-22.58v-55.86c0-13.62-7.79-22.19-20.44-22.19s-21.02,8.76-21.02,22.19v55.86h-22.58v-96.15Z" fill="#fff"/>
        <path d="M568.13,134.08c0-16.15,10.51-26.08,30.17-29.2l32.7-5.06v-2.72c0-10.51-7.98-16.16-19.85-16.16s-20.44,6.42-24.72,16.35l-17.52-8.95c6.04-16.35,21.99-26.67,42.24-26.67,25.3,0,42.43,14.79,42.43,35.43v63.06h-22.38v-9.34c-6.62,7.4-16.54,11.68-29.19,11.68-18.88,0-33.87-10.51-33.87-28.42ZM607.06,145.37c14.21-.19,23.94-8.37,23.94-22.38v-7.01l-28.42,4.48c-7.59,1.36-12.46,5.84-12.46,12.46,0,8.17,6.81,12.65,16.93,12.46Z" fill="#fff"/>
      </g>
      <path d="M665.46,146.93c0-7.79,6.23-14.4,14.41-14.4s14.4,6.62,14.4,14.4-6.23,14.4-14.4,14.4-14.41-6.42-14.41-14.4ZM703.61,134.08c0-16.15,10.51-26.08,30.17-29.2l32.7-5.06v-2.72c0-10.51-7.98-16.16-19.85-16.16s-20.44,6.42-24.72,16.35l-17.52-8.95c6.04-16.35,21.99-26.67,42.24-26.67,25.3,0,42.43,14.79,42.43,35.43v63.06h-22.38v-9.34c-6.62,7.4-16.54,11.68-29.19,11.68-18.88,0-33.87-10.51-33.87-28.42ZM742.54,145.37c14.21-.19,23.94-8.37,23.94-22.38v-7.01l-28.42,4.48c-7.59,1.36-12.46,5.84-12.46,12.46,0,8.17,6.81,12.65,16.93,12.46ZM817.67,21.78c8.56,0,15.18,6.81,15.18,14.99s-6.62,15.18-15.18,15.18-14.99-6.81-14.99-15.18,6.62-14.99,14.99-14.99ZM806.38,64.01h22.58v96.15h-22.58v-96.15Z" fill="#fff"/>
    </g>
    <g>
      <path d="M193.17,37.12L62.95,5.6c-6.46-1.56-13.27.06-18.33,4.37L9.04,40.27l61.15,14.8h0v68.59l-13.94,11.87c-3.97,3.38-4.08,9.49-.24,13.01l35.61,32.61v-75.91l14.13-12.03c4.63-3.94,7.29-9.71,7.29-15.79v-11.98l26.21,6.35c6.46,1.56,13.27-.06,18.33-4.37l35.59-30.3Z" fill="url(#b)"/>
      <path d="M70.18,123.67l35.6-30.45c4.61-3.94,7.26-9.7,7.26-15.76v-12.01l-42.85-10.38v68.59Z" fill="url(#c)"/>
    </g>
  </g>
  <path d="M44.62,9.97L9.04,40.27l61.15,14.8,25.41-22.15c7.32-6.38,4.39-18.36-5.05-20.65l-27.6-6.68c-6.46-1.56-13.27.06-18.33,4.37Z" fill="url(#d)"/>
</svg>