<?xml version="1.0" encoding="UTF-8"?>
<svg id="a" data-name="Layer 1" xmlns="http://www.w3.org/2000/svg" xmlns:xlink="http://www.w3.org/1999/xlink" viewBox="0 0 283.46 283.46">
  <defs>
    <linearGradient id="b" x1="10.06" y1="141.73" x2="273.41" y2="141.73" gradientUnits="userSpaceOnUse">
      <stop offset="0" stop-color="#fa7532"/>
      <stop offset="1" stop-color="#ffc122"/>
    </linearGradient>
    <linearGradient id="c" x1="128.16" y1="185.47" x2="128.16" y2="87.36" gradientUnits="userSpaceOnUse">
      <stop offset="0" stop-color="#fe5200"/>
      <stop offset="1" stop-color="#ffc122"/>
    </linearGradient>
    <linearGradient id="d" x1="10.06" y1="51.56" x2="139.74" y2="51.56" gradientUnits="userSpaceOnUse">
      <stop offset="0" stop-color="#ffc122"/>
      <stop offset="1" stop-color="#fe5200"/>
    </linearGradient>
  </defs>
  <g>
    <path d="M273.41,61.69L87.17,16.6c-9.23-2.24-18.98.09-26.22,6.25L10.06,66.19l87.46,21.17h0v98.11l-19.94,16.98c-5.68,4.84-5.84,13.57-.34,18.61l50.93,46.64v-108.57l20.21-17.21c6.62-5.64,10.43-13.89,10.43-22.59v-17.13l37.49,9.08c9.23,2.24,18.98-.09,26.22-6.25l50.9-43.34Z" fill="url(#b)"/>
    <path d="M97.51,185.47l50.91-43.55c6.59-5.64,10.38-13.87,10.38-22.55v-17.17l-61.29-14.84v98.11Z" fill="url(#c)"/>
  </g>
  <path d="M60.95,22.84L10.06,66.19l87.46,21.17,36.34-31.68c10.47-9.13,6.28-26.26-7.22-29.53l-39.47-9.56c-9.23-2.24-18.98.09-26.22,6.25Z" fill="url(#d)"/>
</svg>